<svg xmlns="http://www.w3.org/2000/svg" xmlns:xlink="http://www.w3.org/1999/xlink" width="16.022px" height="12.997px" viewBox="0 0 16.022 12.997" xml:space="preserve">
<path style="fill: #b2b9bd;" d="M16.022,1.538c-0.59,0.262-1.224,0.438-1.888,0.518c0.678-0.406,1.199-1.05,1.445-1.815
	c-0.635,0.375-1.339,0.648-2.088,0.796C12.893,0.398,12.039,0,11.094,0C9.277,0,7.806,1.469,7.806,3.282
	c0,0.256,0.029,0.507,0.085,0.748C5.159,3.891,2.736,2.586,1.115,0.602C0.833,1.085,0.67,1.648,0.67,2.25
	c0,1.139,0.581,2.143,1.463,2.731C1.594,4.964,1.087,4.816,0.645,4.57C0.644,4.584,0.644,4.597,0.644,4.612
	c0,1.59,1.134,2.916,2.637,3.217C3.005,7.904,2.714,7.944,2.414,7.944c-0.211,0-0.418-0.021-0.618-0.059
	c0.418,1.304,1.632,2.252,3.071,2.277c-1.126,0.881-2.543,1.406-4.083,1.406c-0.266,0-0.527-0.016-0.784-0.047
	c1.455,0.931,3.183,1.475,5.039,1.475c6.047,0,9.353-5,9.353-9.335c0-0.142-0.003-0.284-0.009-0.425
	C15.025,2.774,15.582,2.196,16.022,1.538z"/>
</svg>