<svg xmlns="http://www.w3.org/2000/svg" xmlns:xlink="http://www.w3.org/1999/xlink" width="16.028px" height="16.031px" viewBox="0 0 16.028 16.031" xml:space="preserve">
<path style="fill: #b2b9bd;" d="M10.227,0c0,0-3.507,0-4.749,0C3.068,0,1.06,1.746,1.06,3.694c0,1.99,1.319,3.577,3.586,3.577
	c0.157,0,0.311-0.01,0.461-0.019C4.958,7.532,4.854,7.846,4.854,8.175c0,0.553,0.305,0.868,0.683,1.232
	c-0.285,0-0.562,0.008-0.862,0.008C1.916,9.416,0,10.289,0,12.99c0,1.789,2.313,3.041,5.072,3.041c3.146,0,5.108-1.662,5.08-3.566
	c-0.022-1.434-0.312-2.154-1.845-3.301c-0.44-0.33-1.398-1.004-1.398-1.457c0-0.531,0.152-0.792,0.954-1.417
	C8.685,5.65,9.266,4.808,9.266,3.761c0-1.142-0.467-2.174-1.347-2.676h1.247L10.227,0z M8.359,12.187
	c0.053,0.139,0.058,0.293,0.058,0.445c0,1.264-0.879,2.227-3.398,2.227c-1.793,0-3.088-1.029-3.088-2.291
	c0-1.237,1.452-1.895,3.208-1.895C5.792,10.673,7.751,10.673,8.359,12.187z M5.563,6.477c-1.215-0.038-2.37-1.099-2.579-2.682
	C2.773,2.213,3.839,1.11,5.053,1.145c1.215,0.037,2.006,1.228,2.215,2.809C7.477,5.538,6.778,6.512,5.563,6.477z M14.024,2.043
	V0.001h-1.04v2.042h-1.97v1.002h1.97v1.984h1.04V3.045h2.004V2.043H14.024z"/>
</svg>
