<svg xmlns="http://www.w3.org/2000/svg" xmlns:xlink="http://www.w3.org/1999/xlink" width="16.091px" height="16.06px" viewBox="0 0 16.091 16.06" xml:space="preserve">
<path class="icon-user-path" d="M15.061,16.06H1.03C0.461,16.06,0,15.599,0,15.029v-0.593
	c0-0.87,1.03-1.031,1.03-1.031L6.39,10.75C4.947,9.592,4.123,7.313,4.123,6.187V3.609C4.123,1.902,5.971,0,8.249,0
	c2.277,0,3.842,1.902,3.842,3.609v2.578c0,1.238-0.815,3.447-2.244,4.572l5.214,2.646c0,0,1.03,0.177,1.03,1.031v0.593
	C16.091,15.599,15.63,16.06,15.061,16.06z"/>
</svg>
