<svg version="1.1" id="Layer_1" xmlns="http://www.w3.org/2000/svg" xmlns:xlink="http://www.w3.org/1999/xlink" x="0px" y="0px"
	 width="79.001px" height="79px" viewBox="0 0 79.001 79" enable-background="new 0 0 79.001 79" xml:space="preserve">
	<path style="fill: #525252;" d="M77.225,66.837L58.33,47.942c2.85-4.681,4.49-10.177,4.49-16.058C62.82,14.802,48.017,0,30.932,0C13.85,0,0,13.85,0,30.934
		s14.802,31.885,31.884,31.885c5.681,0,11-1.538,15.575-4.21l18.997,18.997c1.859,1.859,4.873,1.859,6.73,0l4.713-4.71
		C79.758,71.035,79.084,68.695,77.225,66.837z M9.519,30.934c0-11.828,9.588-21.416,21.413-21.416
		c11.83,0,22.369,10.539,22.369,22.367c0,11.827-9.588,21.416-21.417,21.416C20.058,53.301,9.519,42.762,9.519,30.934z"/>
</svg>